<svg xmlns="http://www.w3.org/2000/svg" viewBox="0 0 100 100">
  <defs>
    <!-- 背景渐变 -->
    <radialGradient id="bgGlow" cx="50%" cy="50%" r="50%">
      <stop offset="0%" stop-color="#1a2530"/>
      <stop offset="100%" stop-color="#0d1117"/>
    </radialGradient>
    <!-- 金发渐变 -->
    <linearGradient id="hairGold" x1="0%" y1="0%" x2="100%" y2="100%">
      <stop offset="0%" stop-color="#f0d264"/>
      <stop offset="50%" stop-color="#d4a82a"/>
      <stop offset="100%" stop-color="#b8922a"/>
    </linearGradient>
    <!-- 帽子绿渐变 -->
    <linearGradient id="hatGreen" x1="0%" y1="0%" x2="100%" y2="100%">
      <stop offset="0%" stop-color="#7cb868"/>
      <stop offset="100%" stop-color="#4a8040"/>
    </linearGradient>
    <!-- 肤色渐变 -->
    <linearGradient id="skinTone" x1="0%" y1="0%" x2="0%" y2="100%">
      <stop offset="0%" stop-color="#ffe8d0"/>
      <stop offset="100%" stop-color="#f0d0b0"/>
    </linearGradient>
  </defs>
  
  <!-- 背景圆 -->
  <circle cx="50" cy="50" r="50" fill="url(#bgGlow)"/>
  
  <!-- 林克帽子 - 更大 -->
  <path d="M22 32 Q50 5 78 32 L78 40 Q50 25 22 40 Z" fill="url(#hatGreen)"/>
  <path d="M78 32 L95 45 L88 55 L78 40 Z" fill="#4a8040"/>
  <ellipse cx="92" cy="50" rx="4" ry="5" fill="#3d6830"/>
  
  <!-- 头发 - 更大更丰富 -->
  <ellipse cx="50" cy="38" rx="26" ry="14" fill="url(#hairGold)"/>
  <path d="M26 34 Q20 26 30 20 Q38 32 32 40 Z" fill="url(#hairGold)"/>
  <path d="M74 34 Q80 26 70 20 Q62 32 68 40 Z" fill="url(#hairGold)"/>
  <path d="M38 30 Q35 22 44 18 Q48 28 42 36 Z" fill="#f0d264" opacity="0.8"/>
  <path d="M58 28 Q55 20 64 16 Q68 26 62 34 Z" fill="#f0d264" opacity="0.7"/>
  
  <!-- 脸部 - 更大 -->
  <ellipse cx="50" cy="58" rx="24" ry="24" fill="url(#skinTone)"/>
  
  <!-- 尖耳朵 - 海利亚人 -->
  <path d="M22 52 Q10 42 14 28 Q20 42 28 50 Z" fill="url(#skinTone)"/>
  <path d="M78 52 Q90 42 86 28 Q80 42 72 50 Z" fill="url(#skinTone)"/>
  
  <!-- 耳环 - 希卡蓝 -->
  <circle cx="18" cy="56" r="4" fill="#00d4ff">
    <animate attributeName="opacity" values="0.7;1;0.7" dur="2s" repeatCount="indefinite"/>
  </circle>
  <circle cx="82" cy="56" r="4" fill="#00d4ff">
    <animate attributeName="opacity" values="0.7;1;0.7" dur="2s" repeatCount="indefinite"/>
  </circle>
  
  <!-- 眼睛 - 更大更生动 -->
  <ellipse cx="38" cy="52" rx="7" ry="9" fill="#fff"/>
  <ellipse cx="62" cy="52" rx="7" ry="9" fill="#fff"/>
  <ellipse cx="38" cy="54" rx="5.5" ry="7" fill="#5a9fd4"/>
  <ellipse cx="62" cy="54" rx="5.5" ry="7" fill="#5a9fd4"/>
  <ellipse cx="38" cy="55" rx="3.5" ry="4.5" fill="#1a4a70"/>
  <ellipse cx="62" cy="55" rx="3.5" ry="4.5" fill="#1a4a70"/>
  <circle cx="35" cy="51" r="2.5" fill="#fff"/>
  <circle cx="59" cy="51" r="2.5" fill="#fff"/>
  <circle cx="40" cy="56" r="1" fill="#fff" opacity="0.6"/>
  <circle cx="64" cy="56" r="1" fill="#fff" opacity="0.6"/>
  
  <!-- 眉毛 -->
  <path d="M28 42 Q38 38 48 43" fill="none" stroke="#9a7520" stroke-width="2.5" stroke-linecap="round"/>
  <path d="M52 43 Q62 38 72 42" fill="none" stroke="#9a7520" stroke-width="2.5" stroke-linecap="round"/>
  
  <!-- 鼻子 -->
  <path d="M50 56 L50 66" fill="none" stroke="#e0b090" stroke-width="2" stroke-linecap="round"/>
  <ellipse cx="50" cy="67" rx="3" ry="2" fill="#e8c0a0"/>
  
  <!-- 嘴巴 - 自信微笑 -->
  <path d="M40 76 Q50 82 60 76" fill="none" stroke="#d09070" stroke-width="2.5" stroke-linecap="round"/>
</svg>
